<?xml version="1.0" encoding="utf-8"?><svg xmlns="http://www.w3.org/2000/svg" xmlns:xlink="http://www.w3.org/1999/xlink"><symbol viewBox="0 0 512 512" id="activate"><path d="M149.057 232.9c-13.308-11.63-33.524-10.267-45.153 3.04-11.63 13.308-10.268 33.523 3.04 45.152l109 95.25c1.636 1.43 3.38 2.657 5.196 3.696 5.264 3.34 11.195 4.96 17.086 4.96 9.69 0 19.267-4.385 25.558-12.712L505.532 52.288c10.652-14.102 7.857-34.17-6.245-44.823-14.1-10.653-34.168-7.857-44.822 6.244l-221.19 292.785-84.218-73.595z"/><path d="M443.227 213.39C446.347 227.1 448 241.36 448 256c0 105.87-86.13 192-192 192S64 361.87 64 256 150.13 64 256 64c30.373 0 59.115 7.1 84.67 19.71l39.186-51.867C342.374 11.063 300.04 0 256 0 187.62 0 123.332 26.63 74.98 74.98 26.63 123.333 0 187.62 0 256c0 68.38 26.63 132.667 74.98 181.02C123.333 485.37 187.62 512 256 512c68.38 0 132.667-26.63 181.02-74.98C485.37 388.666 512 324.38 512 256c0-36.57-7.623-71.965-22.105-104.382l-46.668 61.773z"/></symbol><symbol viewBox="0 0 512 512" id="apps"><path d="M448 0H64C28.71 0 0 28.71 0 64v384c0 35.29 28.71 64 64 64h384c35.29 0 64-28.71 64-64V64c0-35.29-28.71-64-64-64zm0 448H64V64h384l.04 383.998s-.013.002-.04.002z"/><path d="M255.51 156.636c-11.13 11.128-25.848 27.715-39.05 44.357-17.655-5.128-39.227 5.715-55.09 21.578-.47.47-.918.95-1.37 1.43l128 128c.48-.45.96-.9 1.43-1.37 15.862-15.863 26.705-37.435 21.577-55.09 16.642-13.202 33.23-27.92 44.357-39.05 54.467-54.467 76.27-120.974 48.695-148.55-27.576-27.572-94.083-5.77-148.55 48.696zm113.415 19.724c-9.532 9.532-24.71 9.808-33.902.617-9.19-9.192-8.915-24.37.617-33.902 9.532-9.53 24.71-9.807 33.9-.616 9.192 9.19 8.916 24.368-.615 33.9zM224 320l-32-32c-9.36 17.396-9.988 22.012 0 32s14.604 9.36 32 0zM154.343 346.343l-32 32c-3.124 3.125-3.124 8.19 0 11.314 1.562 1.562 3.61 2.343 5.657 2.343s4.095-.78 5.657-2.343l32-32c3.124-3.125 3.124-8.19 0-11.314-3.124-3.123-8.19-3.123-11.314 0zM218.343 346.343l-32 32c-3.124 3.125-3.124 8.19 0 11.314 1.562 1.562 3.61 2.343 5.657 2.343s4.095-.78 5.657-2.343l32-32c3.124-3.125 3.124-8.19 0-11.314-3.124-3.123-8.19-3.123-11.314 0zM154.343 282.343l-32 32c-3.124 3.125-3.124 8.19 0 11.314 1.562 1.562 3.61 2.343 5.657 2.343s4.095-.78 5.657-2.343l32-32c3.124-3.125 3.124-8.19 0-11.314-3.124-3.123-8.19-3.123-11.314 0z"/></symbol><symbol viewBox="0 0 512 512" id="blogs"><path d="M448 0H64C28.71 0 0 28.71 0 64v384c0 35.29 28.71 64 64 64h384c35.29 0 64-28.71 64-64V64c0-35.29-28.71-64-64-64zm0 448H64V64h384l.04 383.998s-.013.002-.04.002z"/><path d="M384 256H128c-17.673 0-32 14.327-32 32s14.327 32 32 32h256c17.673 0 32-14.327 32-32s-14.327-32-32-32zM288 352H128c-17.673 0-32 14.327-32 32s14.327 32 32 32h160c17.673 0 32-14.327 32-32s-14.327-32-32-32zM384 96H128c-17.6 0-32 14.4-32 32v64c0 17.6 14.4 32 32 32h256c17.6 0 32-14.4 32-32v-64c0-17.6-14.4-32-32-32z"/></symbol><symbol viewBox="0 0 512 512" id="bookmarks"><path d="M448 0H64C28.71 0 0 28.71 0 64v384c0 35.29 28.71 64 64 64h384c35.29 0 64-28.71 64-64V64c0-35.29-28.71-64-64-64zm0 448H64V64h160v224l96-81.455L416 288V64h32l.04 383.998s-.013.002-.04.002z"/></symbol><symbol viewBox="0 0 512 480" id="calendar"><path d="M448 96V32c0-17.673-14.327-32-32-32s-32 14.327-32 32v64h-96V32c0-17.673-14.327-32-32-32s-32 14.327-32 32v64h-96V32c0-17.673-14.327-32-32-32S64 14.327 64 32v64H0v320c0 35.29 28.71 64 64 64h384c35.29 0 64-28.71 64-64V96h-64zm0 320H64V160h384.005l.035 255.998s-.013.002-.04.002z"/><path d="M144 224h-32c-8.836 0-16 7.163-16 16v32c0 8.836 7.163 16 16 16h32c8.836 0 16-7.163 16-16v-32c0-8.837-7.163-16-16-16zM272 224h-32c-8.836 0-16 7.163-16 16v32c0 8.836 7.163 16 16 16h32c8.836 0 16-7.163 16-16v-32c0-8.837-7.163-16-16-16zM400 224h-32c-8.836 0-16 7.163-16 16v32c0 8.836 7.163 16 16 16h32c8.836 0 16-7.163 16-16v-32c0-8.837-7.163-16-16-16zM144 320h-32c-8.836 0-16 7.163-16 16v32c0 8.836 7.163 16 16 16h32c8.836 0 16-7.163 16-16v-32c0-8.837-7.163-16-16-16zM272 320h-32c-8.836 0-16 7.163-16 16v32c0 8.836 7.163 16 16 16h32c8.836 0 16-7.163 16-16v-32c0-8.837-7.163-16-16-16zM400 320h-32c-8.836 0-16 7.163-16 16v32c0 8.836 7.163 16 16 16h32c8.836 0 16-7.163 16-16v-32c0-8.837-7.163-16-16-16z"/></symbol><symbol viewBox="0 0 512 512" id="categories"><path d="M319.97 256c17.09.006 33.16-6.648 45.253-18.74 12.092-12.095 18.745-28.167 18.74-45.26.023-34.15-29.776-64-63.994-64-35.288.006-63.99 28.71-63.995 64 0 17.1 6.66 33.165 18.745 45.253 12.1 12.1 28.163 18.76 45.25 18.747zm0-93.03c7.75 0 15.037 3.025 20.52 8.508 5.48 5.482 8.505 12.77 8.505 20.522 0 7.752-3.018 15.046-8.5 20.528-5.482 5.483-12.775 8.502-20.526 8.502-15.505 0-29.028-13.525-29.028-29.03.006-15.994 13.034-29.023 29.027-29.03z"/><path d="M0 426.3c-.01 22.682 8.957 44.15 25.255 60.452C41.537 503.032 62.965 512 85.595 512h.032l223.14-.057h1.19l1.19-.088c19.425-1.456 56.4-8.525 86.185-39.51l87.38-87.356.675-.695c32.962-35.01 35.598-86.178 6.27-121.67l-.967-1.17-5.235-5.235c32.894-35.007 35.51-86.128 6.202-121.595l-.966-1.17-96.625-96.635C364.935 7.687 333.24 1.302 316.94.088L315.752 0H85.618c-22.635.01-44.1 9.107-60.438 25.612C8.948 42.01.005 63.47 0 86.045M85.596 320c-5.618 0-10.837-2.25-15.09-6.504-4.263-4.264-6.515-9.508-6.512-15.18V86.052C63.997 74.517 74.318 64.005 85.634 64H313.21c7.714.76 21.73 4.2 35.605 18.075l94.262 94.27c7.707 10.3 6.13 24.785-4 35.775l-87.224 87.198-.515.527c-14.547 15.228-33.315 19.152-43.886 20.098L85.604 320m-.01 128c-5.616 0-10.835-2.25-15.088-6.503-4.264-4.264-6.515-9.508-6.512-15.182v-45.132c6.982 1.848 14.224 2.817 21.6 2.817h.034l223.138-.057h1.192l1.19-.088c19.425-1.456 56.402-8.528 86.188-39.515l42.874-42.86 2.868 2.868c7.706 10.297 6.13 24.78-4 35.77l-87.226 87.2-.515.527c-14.547 15.228-33.315 19.152-43.886 20.098L85.605 448"/></symbol><symbol viewBox="0 0 512 512" id="components"><path d="M448 0H64C28.71 0 0 28.71 0 64v384c0 35.29 28.71 64 64 64h384c35.29 0 64-28.71 64-64V64c0-35.29-28.71-64-64-64zm0 448H64V64h384l.04 383.998s-.013.002-.04.002z"/><path d="M362.667 238.222c-6.236 0-12.216 1.08-17.778 3.047v-38.603c0-19.637-15.92-35.556-35.557-35.556H270.73c1.967-5.56 3.048-11.54 3.048-17.777C273.778 119.878 249.9 96 220.444 96c-29.455 0-53.333 23.878-53.333 53.333 0 6.236 1.082 12.216 3.048 17.778h-38.602C111.918 167.11 96 183.03 96 202.668v177.777C96 400.08 111.92 416 131.555 416h38.603c-1.967-5.562-3.047-11.543-3.047-17.778 0-29.455 23.88-53.333 53.334-53.333 29.456 0 53.334 23.877 53.334 53.332 0 6.236-1.08 12.216-3.047 17.778h38.603c19.637 0 35.556-15.92 35.556-35.556v-38.602c5.56 1.966 11.542 3.047 17.777 3.047 29.455 0 53.333-23.88 53.333-53.334 0-29.456-23.878-53.334-53.333-53.334z"/></symbol><symbol viewBox="0 0 448 512" id="ddl"><path d="M442.707 416.374l-45.25-26.204 22.812-54.755c.665-1.453 1.092-3.066 1.092-4.733 0-5.895-4.747-10.682-10.626-10.682-2.666.054-4.893.88-6.666 2.294-.32.253-.573.413-.733.626l-79.994 75.73c-2.453 2.348-3.64 5.682-3.28 9.016.414 3.333 2.347 6.307 5.253 7.974l45.263 26.257-23.08 55.368c-1.972 4.64-.36 10 3.76 12.868 1.867 1.294 3.96 1.867 6.093 1.867 2.654 0 5.253-.987 7.347-2.907l79.993-75.744c2.44-2.348 3.64-5.68 3.227-9.015-.374-3.334-2.346-6.295-5.213-7.96zM383.652 0H63.942C28.628 0 0 28.628 0 63.942v320.116C0 419.316 28.684 448 63.942 448h192.232l-.058-64H192v-64h128V192h64v64.174h64V64.348C448 28.81 419.19 0 383.652 0zM128 384H64v-64h64v64zm0-128H64v-64h64v64zm0-128H64V64h64v64zm128 128h-64v-64h64v64zm0-128h-64V64h64v64zm128 0h-64V64h64v64z"/></symbol><symbol viewBox="0 0 512 512" id="deactivate"><path d="M437.02 74.98C388.666 26.63 324.38 0 256 0 187.62 0 123.332 26.63 74.98 74.98 26.63 123.333 0 187.62 0 256c0 68.38 26.63 132.667 74.98 181.02C123.333 485.37 187.62 512 256 512c68.38 0 132.667-26.63 181.02-74.98C485.37 388.666 512 324.38 512 256c0-68.38-26.63-132.668-74.98-181.02zM256 448c-105.87 0-192-86.13-192-192S150.13 64 256 64s192 86.13 192 192-86.13 192-192 192z"/><path d="M352 224H160c-17.673 0-32 14.327-32 32 0 17.673 14.327 32 32 32h192c17.673 0 32-14.327 32-32 0-17.673-14.327-32-32-32z"/></symbol><symbol viewBox="0 0 512 512" id="documents-media"><path d="M148.033 188.756c2.515 2.153 5.457 3.244 8.742 3.244 3.944 0 6.933-1.18 8.884-3.503 1.528-1.82 3.16-4.878 5.132-9.626l3.692-8.896h34.396l3.685 8.687.04.094c.62 1.352 1.37 2.93 2.23 4.687.997 2.043 1.948 3.563 2.905 4.65 1.07 1.213 2.393 2.18 3.936 2.87 1.537.69 3.337 1.04 5.352 1.04 3.49 0 6.53-1.14 9.034-3.385 2.613-2.344 3.938-5.063 3.938-8.08 0-2.49-1.038-5.884-3.254-10.654l-25.06-55.527c-1.203-2.837-2.165-5.036-2.94-6.722-.867-1.89-1.95-3.687-3.217-5.337-1.427-1.856-3.3-3.382-5.57-4.536-2.297-1.166-5.107-1.757-8.353-1.757-3.202 0-5.99.59-8.286 1.758-2.283 1.16-4.166 2.718-5.596 4.63-1.268 1.696-2.46 3.815-3.545 6.3l-2.52 5.78-24.538 55.887c-1.056 2.347-1.8 4.15-2.273 5.51-.565 1.615-.85 3.225-.85 4.786 0 2.125.7 5.256 4.033 8.106zm43.472-61.598l9.27 22.762h-18.37l9.1-22.762z"/><path d="M448 96h-64V64c0-35.29-28.71-64-64-64H64C28.71 0 0 28.71 0 64v256.002c0 35.29 28.71 64 64 64h32V448c0 35.29 28.71 64 64 64h288c35.29 0 64-28.71 64-64V160c0-35.29-28.71-64-64-64zM64 320.002V64h256l.005 32H320v64h.015l.025 160s-.013.002-.04.002H160V320H96v.002H64zM448 448H160v-63.998h160c35.29 0 64-28.71 64-64V160h64l.04 287.998s-.013.002-.04.002z"/><path d="M128 288h128c17.673 0 32-14.327 32-32s-14.327-32-32-32H128c-17.673 0-32 14.327-32 32s14.327 32 32 32z"/></symbol><symbol viewBox="0 0 512 512" id="forms"><path d="M448 0H64C28.71 0 0 28.71 0 64v384c0 35.29 28.71 64 64 64h384c35.29 0 64-28.71 64-64V64c0-35.29-28.71-64-64-64zm0 448H64V64h384l.04 383.998s-.013.002-.04.002z"/><path d="M384 128H224c-17.673 0-32 14.327-32 32s14.327 32 32 32h160c17.673 0 32-14.327 32-32s-14.327-32-32-32z"/><circle cx="128" cy="160" r="32"/><path d="M384 224H224c-17.673 0-32 14.327-32 32s14.327 32 32 32h160c17.673 0 32-14.327 32-32s-14.327-32-32-32z"/><circle cx="128" cy="256" r="32"/><path d="M384 320H224c-17.673 0-32 14.327-32 32s14.327 32 32 32h160c17.673 0 32-14.327 32-32s-14.327-32-32-32z"/><circle cx="128" cy="352" r="32"/></symbol><symbol viewBox="0 0 512 512" id="layout-template"><path d="M448 0H64C28.71 0 0 28.71 0 64v384c0 35.29 28.71 64 64 64h384c35.29 0 64-28.71 64-64V64c0-35.29-28.71-64-64-64zM64 448V64h64v384H64zm384 0H320v-32h-32v32H160V192h32v-32h-32V64h288v96h-32v32h32v255.998s.027.002 0 .002z"/><path d="M224 160h32v32h-32zM288 160h32v32h-32zM352 160h32v32h-32zM288 224h32v32h-32zM288 288h32v32h-32zM288 352h32v32h-32z"/></symbol><symbol viewBox="0 0 512 512" id="message-boards"><path d="M448 0H64C28.71 0 0 28.71 0 64v384c0 35.29 28.71 64 64 64h384c35.29 0 64-28.71 64-64V64c0-35.29-28.71-64-64-64zm0 448H64V64h384l.04 383.998s-.013.002-.04.002z"/><path d="M384 256H128c-17.673 0-32 14.327-32 32s14.327 32 32 32h256c17.673 0 32-14.327 32-32s-14.327-32-32-32zM288 352H128c-17.673 0-32 14.327-32 32s14.327 32 32 32h160c17.673 0 32-14.327 32-32s-14.327-32-32-32z"/><circle cx="256" cy="128" r="32"/></symbol><symbol viewBox="0 0 512 512" id="module-groups"><path d="M448 0H64C28.71 0 0 28.71 0 64v384c0 35.29 28.71 64 64 64h384c35.29 0 64-28.71 64-64V64c0-35.29-28.71-64-64-64zm0 448H64V64h384v383.998s.027.002 0 .002z"/><path d="M96 128v64l64 32 64-32v-64l-64-32M288 320v64l64 32 64-32v-64l-64-32M288 128v64l64 32 64-32v-64l-64-32M96 320v64l64 32 64-32v-64l-64-32"/></symbol><symbol viewBox="0 0 512 512" id="modules"><path d="M448 0H64C28.71 0 0 28.71 0 64v384c0 35.29 28.71 64 64 64h384c35.29 0 64-28.71 64-64V64c0-35.29-28.71-64-64-64zm0 448H64V64h384v383.998s.027.002 0 .002z"/><path d="M320 136l-64-40-64 40v80l64 40 64-40M288 264v80l64 40 64-40v-80l-64-40M96 264v80l64 40 64-40v-80l-64-40"/></symbol><symbol viewBox="0 0 512 512" id="organizations"><path d="M448 0H64C28.71 0 0 28.71 0 64v384c0 35.29 28.71 64 64 64h384c35.29 0 64-28.71 64-64V64c0-35.29-28.71-64-64-64zm0 448H64V64h384l.04 383.998s-.013.002-.04.002z"/><path d="M371.197 304.737c8.41-9.328 13.103-21.387 13.103-34.172 0-28.227-22.964-51.192-51.192-51.192-1.16 0-2.325.04-3.49.12-7.873-16.232-20.444-29.674-35.54-38.117 8.417-9.33 13.114-21.393 13.114-34.184C307.192 118.964 284.228 96 256 96c-28.227 0-51.19 22.965-51.19 51.192 0 12.79 4.695 24.854 13.112 34.184-15.096 8.443-27.668 21.885-35.54 38.117-1.165-.08-2.33-.12-3.49-.12-28.227 0-51.192 22.965-51.192 51.192 0 12.785 4.693 24.844 13.103 34.172-12.002 6.666-22.3 16.37-30.096 28.434C101.087 348.06 96 365.52 96 383.658v18.85c0 7.44 5.804 13.493 12.938 13.493 7.133 0 12.937-6.053 12.937-13.494v-18.85c0-34.13 25.577-61.9 57.017-61.9s57.016 27.77 57.016 61.9v18.85c0 7.44 5.804 13.494 12.938 13.494 2.643 0 5.104-.83 7.154-2.256 2.05 1.425 4.512 2.256 7.155 2.256 7.133 0 12.937-6.053 12.937-13.494v-18.85c0-34.13 25.577-61.9 57.016-61.9 31.44 0 57.017 27.77 57.017 61.9v18.85c0 7.44 5.803 13.494 12.937 13.494S416 409.947 416 402.506v-18.85c0-18.138-5.086-35.596-14.707-50.485-7.795-12.063-18.093-21.767-30.096-28.433zM256 122.987c13.346 0 24.204 10.858 24.204 24.205S269.346 171.395 256 171.395s-24.203-10.857-24.203-24.203 10.857-24.204 24.203-24.204zM178.892 294.77c-13.346 0-24.204-10.86-24.204-24.205s10.858-24.204 24.204-24.204c13.345 0 24.203 10.86 24.203 24.205s-10.858 24.204-24.203 24.204zm103.025-24.205c0 12.785 4.693 24.844 13.103 34.172-12.003 6.666-22.3 16.37-30.096 28.433-3.63 5.62-6.615 11.602-8.924 17.85-2.31-6.25-5.294-12.23-8.924-17.85-7.795-12.063-18.094-21.767-30.096-28.433 8.41-9.328 13.103-21.387 13.103-34.172 0-17.24-8.578-33.064-22.724-42.522 10.345-18.42 28.57-29.66 48.64-29.66s38.294 11.24 48.642 29.66c-14.147 9.458-22.725 25.28-22.725 42.522zm51.192 24.204c-13.348 0-24.205-10.86-24.205-24.205s10.857-24.204 24.203-24.204c13.347 0 24.204 10.86 24.204 24.205s-10.857 24.204-24.204 24.204z"/></symbol><symbol viewBox="0 0 512 512" id="osgi-modules"><path d="M448 0H64C28.71 0 0 28.71 0 64v384c0 35.29 28.71 64 64 64h384c35.29 0 64-28.71 64-64V64c0-35.29-28.71-64-64-64zm0 448H64V64h384l.04 383.998s-.013.002-.04.002z"/><path d="M256 160c41.792 0 77.34 26.708 90.524 63.985C350.06 213.978 352 203.217 352 192c0-53.02-42.98-96-96-96s-96 42.98-96 96c0 11.217 1.94 21.978 5.476 31.985C178.66 186.708 214.208 160 256 160zM347.888 228.14c2.67 8.818 4.112 18.17 4.112 27.86 0 53.02-42.98 96-96 96s-96-42.98-96-96c0-9.69 1.44-19.042 4.112-27.86C124.698 240.09 96 276.683 96 320c0 53.02 42.98 96 96 96 24.59 0 47.015-9.25 64-24.453C272.985 406.75 295.41 416 320 416c53.02 0 96-42.98 96-96 0-43.317-28.698-79.91-68.112-91.86z"/></symbol><symbol viewBox="0 0 512 512" id="polls"><path d="M448 0H64C28.71 0 0 28.71 0 64v384c0 35.29 28.71 64 64 64h384c35.29 0 64-28.71 64-64V64c0-35.29-28.71-64-64-64zm0 448H64V64h384l.04 383.998s-.013.002-.04.002z"/><path d="M160 128c-17.673 0-32 14.327-32 32v192c0 17.673 14.327 32 32 32s32-14.327 32-32V160c0-17.673-14.327-32-32-32zM256 224c-17.673 0-32 14.327-32 32v96c0 17.673 14.327 32 32 32s32-14.327 32-32v-96c0-17.673-14.327-32-32-32zM352 192c-17.673 0-32 14.327-32 32v128c0 17.673 14.327 32 32 32s32-14.327 32-32V224c0-17.673-14.327-32-32-32z"/></symbol><symbol viewBox="0 0 512 512" id="portlets"><path d="M448 0H64C28.71 0 0 28.71 0 64v384c0 35.29 28.71 64 64 64h384c35.29 0 64-28.71 64-64V64c0-35.29-28.71-64-64-64zm-64 64h64v64h-64V64zm-128 0h64v64h-64V64zm192 384H64V192h384l.04 255.998s-.013.002-.04.002z"/></symbol><symbol viewBox="0 0 512 512" id="tag"><path d="M512 94.884l-.015-.968C510.488 44.094 474.95 4.656 427.483.144L425.97 0H281.854c-42.902 0-70.922 18.624-83.806 29.726l-.9.777L25.47 202.23C8.927 218.794-.12 241.154 0 265.19c.122 23.88 9.276 46.128 25.782 62.648L184.147 486.25C200.73 502.855 222.997 512 246.85 512c23.844 0 46.094-9.13 62.643-25.702L476.796 318.86l.777-.903c13.246-15.394 35.288-47.87 34.4-92.644L512 94.883zM447.98 226.38c.52 22.853-10.868 40.223-18.217 49.002L264.213 441.068c-4.464 4.47-10.63 6.932-17.364 6.932-6.84 0-12.862-2.412-17.43-6.986L71.05 282.596c-9.264-9.272-9.405-26.02-.307-35.13L240.615 77.544C247.11 72.19 260.54 64 281.853 64h140.8c14.374 2 24.682 14.71 25.346 31.423l-.026 130.22.008.736z"/><path d="M294.595 121.582c-26.326 26.343-26.326 69.187 0 95.53 12.757 12.762 29.714 19.782 47.75 19.782 18.056 0 35.012-7.02 47.752-19.782 12.757-12.752 19.785-29.713 19.785-47.765s-7.028-35.013-19.785-47.765c-25.46-25.505-69.97-25.54-95.502 0zm69.41 69.43c-11.568 11.572-31.75 11.572-43.318 0-11.93-11.94-11.93-31.39 0-43.33 5.784-5.786 13.478-8.968 21.66-8.968 8.18 0 15.874 3.182 21.658 8.967s8.974 13.484 8.974 21.667c0 8.183-3.19 15.88-8.975 21.666z"/></symbol><symbol viewBox="0 0 512 512" id="themes"><circle cx="128" cy="128" r="32"/><circle cx="240" cy="144" r="48"/><circle cx="352" cy="224" r="64"/><circle cx="368" cy="368" r="48"/><path d="M448 0H64C28.71 0 0 28.71 0 64v224c0 35.29 28.71 64 64 64h160l.017 160H448c35.29 0 64-28.71 64-64V64c0-35.29-28.71-64-64-64zm0 448H288v-96c0-35.29-28.71-64-64-64H64V64h384l.04 383.998s-.013.002-.04.002z"/></symbol><symbol viewBox="0 0 512 512" id="web-content"><path d="M132.033 188.756c2.515 2.153 5.457 3.244 8.742 3.244 3.944 0 6.933-1.18 8.884-3.503 1.528-1.82 3.16-4.88 5.132-9.626l3.692-8.896h34.397l3.685 8.687.04.094c.62 1.352 1.37 2.93 2.23 4.687.997 2.043 1.948 3.563 2.905 4.65 1.07 1.213 2.393 2.18 3.936 2.87 1.537.69 3.337 1.04 5.352 1.04 3.49 0 6.53-1.14 9.034-3.385 2.613-2.345 3.938-5.063 3.938-8.082 0-2.487-1.038-5.882-3.254-10.652l-25.06-55.527c-1.203-2.837-2.165-5.036-2.94-6.722-.867-1.89-1.95-3.687-3.217-5.337-1.427-1.856-3.3-3.382-5.57-4.536-2.297-1.166-5.107-1.757-8.352-1.757-3.203 0-5.99.59-8.287 1.758-2.283 1.16-4.166 2.718-5.596 4.63-1.268 1.695-2.46 3.815-3.545 6.3l-2.52 5.78-24.538 55.887c-1.056 2.347-1.8 4.15-2.273 5.51-.564 1.615-.85 3.225-.85 4.786 0 2.125.7 5.256 4.033 8.106zm43.472-61.598l9.27 22.76h-18.37l9.1-22.76z"/><path d="M437.02 74.98C396.293 34.255 344.26 6.973 288 0H64C28.71 0 0 28.71 0 64v384c0 35.29 28.71 64 64 64h224c56.26-6.972 108.293-34.255 149.02-74.98C485.37 388.668 512 324.38 512 256c0-68.38-26.63-132.667-74.98-181.02zm8.406 149.67c.834 5.053 1.473 10.172 1.902 15.35H367.76c-.517-17.712-1.89-35.06-4.08-51.778 16.065 3.968 30.994 8.853 44.41 14.602 15.458 6.625 28.044 14.037 37.336 21.825zm-13.813-46.224c-3.512-1.72-7.14-3.396-10.92-5.015-18.667-8-39.876-14.477-62.802-19.3-4.823-22.927-11.3-44.136-19.3-62.804-1.62-3.778-3.297-7.407-5.016-10.92 43.6 19.336 78.704 54.44 98.04 98.04zM323.778 363.68c-3.968 16.065-8.853 30.995-14.602 44.41-6.44 15.027-13.625 30.7-21.176 39.91H64V64h224c7.55 9.21 14.736 24.883 21.176 39.91 5.75 13.416 10.634 28.345 14.602 44.41-11.65-1.526-23.61-2.644-35.778-3.365v32.06c14.57.916 28.777 2.436 42.42 4.566 2.903 18.596 4.71 38.214 5.334 58.42H288v32h47.754c-.624 20.206-2.43 39.824-5.335 58.42-13.643 2.13-27.85 3.65-42.42 4.565v32.06c12.17-.72 24.13-1.84 35.778-3.365zm9.796 67.933c1.72-3.512 3.396-7.14 5.015-10.918 8-18.67 14.477-39.878 19.3-62.804 22.927-4.823 44.136-11.3 62.804-19.302 3.778-1.62 7.407-3.295 10.92-5.015-19.336 43.6-54.44 78.705-98.04 98.04zM445.426 287.35c-9.292 7.79-21.878 15.2-37.337 21.826-13.416 5.75-28.345 10.634-44.41 14.602 2.19-16.718 3.563-34.065 4.08-51.778h79.568c-.43 5.178-1.068 10.296-1.9 15.35z"/><path d="M224 256h-96c-17.673 0-32 14.327-32 32s14.327 32 32 32h96c17.673 0 32-14.327 32-32s-14.327-32-32-32zM160 352h-32c-17.673 0-32 14.327-32 32s14.327 32 32 32h32c17.673 0 32-14.327 32-32s-14.327-32-32-32z"/></symbol><symbol viewBox="0 0 512 512" id="wiki"><path d="M448 0H64C28.71 0 0 28.71 0 64v384c0 35.29 28.71 64 64 64h384c35.29 0 64-28.71 64-64V64c0-35.29-28.71-64-64-64zm0 448H64V64h384l.04 383.998s-.013.002-.04.002z"/><path d="M384 256H128c-17.673 0-32 14.327-32 32s14.327 32 32 32h256c17.673 0 32-14.327 32-32s-14.327-32-32-32zM288 352H128c-17.673 0-32 14.327-32 32s14.327 32 32 32h160c17.673 0 32-14.327 32-32s-14.327-32-32-32zM191.044 200.642c.733 1.886 1.755 4.44 3.056 7.66 1.3 3.22 2.81 6.013 4.522 8.365 1.71 2.35 3.85 4.167 6.416 5.432s5.684 1.9 9.35 1.9c7.168 0 12.18-2.05 15.033-6.138 2.856-4.09 5.5-10.158 7.946-18.198l18.455-65.205 19.067 65.204c1.633 5.215 3.134 9.452 4.522 12.71 1.388 3.26 3.518 6.015 6.416 8.258 2.88 2.243 6.862 3.368 11.908 3.368 4.89 0 8.748-1.048 11.56-3.15s4.87-4.494 6.162-7.17c1.31-2.678 3.143-7.024 5.5-13.038l27.255-78.46c2.533-6.153 3.79-10.755 3.79-13.797 0-3.33-1.467-6.23-4.4-8.69-2.933-2.46-6.39-3.695-10.39-3.695-3.98 0-7.035.815-9.165 2.444-2.113 1.63-3.615 3.516-4.523 5.65-.89 2.134-2.077 5.595-3.544 10.375l-22 73.68-19.79-69.01c-2.035-6.153-3.624-10.483-4.767-12.982-1.143-2.5-3.116-4.82-5.927-6.953C264.683 97.07 260.79 96 255.82 96c-4.888 0-8.738 1.07-11.55 3.205-2.81 2.134-4.722 4.384-5.743 6.736-1.022 2.352-2.584 6.752-4.706 13.2l-19.8 69.008-21.754-73.68c-2.2-6.735-4.278-11.5-6.233-14.285-1.956-2.786-5.7-4.183-11.244-4.183-4.157 0-7.657 1.265-10.512 3.802S160 105.196 160 108.385c0 2.538 1.344 7.131 4.033 13.797l27.01 78.46z"/></symbol><symbol viewBox="0 0 512 512" id="workflow"><path d="M448 0H64C28.71 0 0 28.71 0 64v384c0 35.29 28.71 64 64 64h384c35.29 0 64-28.71 64-64V64c0-35.29-28.71-64-64-64zm0 448H64V64h384l.04 383.998s-.013.002-.04.002z"/><path d="M352 257.603V208h32l-48-96-48 96h32v49.603c-31.345 6.364-56.033 31.052-62.397 62.397H192v-64h64V96H96v160h64v96h97.603c7.413 36.515 39.694 64 78.397 64 44.183 0 80-35.817 80-80 0-38.703-27.485-70.984-64-78.397z"/></symbol></svg>